<?xml version="1.0" encoding="utf-8"?>
<svg viewBox="0 0 350 225" xmlns="http://www.w3.org/2000/svg">
  <path d="M 113.381 217.608 C 54.84 217.608 7.383 170.151 7.383 111.61 C 7.383 53.069 54.84 5.612 113.381 5.612 C 137.181 5.612 159.148 13.456 176.84 26.699 C 150.644 45.998 133.648 77.062 133.648 112.095 C 133.648 146.836 150.362 177.674 176.187 197.006 C 158.609 209.956 136.889 217.608 113.381 217.608 Z" style="fill: rgb(255, 0, 0); stroke: none;" transform="matrix(1, 0, 0, 1, 0, 0)"/>
  <path d="M 219.408 111.926 C 219.408 146.555 202.802 177.306 177.119 196.649 C 151.012 177.342 134.083 146.332 134.083 111.368 C 134.083 76.739 150.689 45.988 176.372 26.645 C 202.48 45.952 219.408 76.962 219.408 111.926 Z" style="fill: rgb(255, 0, 0); stroke: none;" transform="matrix(1, 0, 0, 1, 0, 0)"/>
  <path d="M 345.379 111.922 C 345.379 170.463 297.922 217.92 239.381 217.92 C 215.76 217.92 193.944 210.194 176.322 197.131 C 202.291 177.811 219.114 146.886 219.114 112.031 C 219.114 77.111 202.228 46.134 176.175 26.822 C 193.823 13.693 215.695 5.924 239.381 5.924 C 297.922 5.924 345.379 53.381 345.379 111.922 Z" style="fill: rgb(255, 0, 0); stroke: none;" transform="matrix(1, 0, 0, 1, 0, 0)"/>
  <path d="M 218.043 112.427 C 218.043 147.056 201.437 177.807 175.754 197.15 C 149.647 177.843 132.718 146.833 132.718 111.869 C 132.718 77.24 149.324 46.489 175.007 27.146 C 201.115 46.453 218.043 77.463 218.043 112.427 Z M 112.017 218.296 C 53.476 218.296 6.019 170.839 6.019 112.298 C 6.019 53.757 53.476 6.3 112.017 6.3 C 135.817 6.3 157.784 14.144 175.476 27.387 C 149.28 46.686 132.284 77.75 132.284 112.783 C 132.284 147.524 148.998 178.362 174.823 197.694 C 157.245 210.644 135.525 218.296 112.017 218.296 Z M 344.42 111.829 C 344.42 170.37 296.963 217.827 238.422 217.827 C 214.801 217.827 192.985 210.101 175.363 197.038 C 201.332 177.718 218.155 146.793 218.155 111.938 C 218.155 77.018 201.269 46.041 175.216 26.729 C 192.864 13.6 214.736 5.831 238.422 5.831 C 296.963 5.831 344.42 53.288 344.42 111.829 Z" style="stroke: rgb(0, 0, 255); stroke-width: 10px; fill: none;" transform="matrix(1, 0, 0, 1, 0, 0)"/>
</svg>